<svg width="250" height="250" viewBox="0 0 250 250" fill="none" xmlns="http://www.w3.org/2000/svg">
<path d="M187.5 83.3332H145.833M166.667 62.4998V104.167M187.5 182.292H145.833M187.5 151.042H145.833M104.167 182.292L85.9375 164.062M85.9375 164.062L67.7083 145.833M85.9375 164.062L104.167 145.833M85.9375 164.062L67.7083 182.292M104.167 83.3332H62.5M223.958 134.896V115.104C223.958 73.1248 223.958 52.1248 209.469 39.0832C194.979 26.0415 171.656 26.0415 125 26.0415C78.3541 26.0415 55.0208 26.0415 40.5312 39.0832C26.0416 52.1248 26.0416 73.1248 26.0416 115.104V134.896C26.0416 176.875 26.0416 197.875 40.5312 210.917C55.0208 223.958 78.3437 223.958 125 223.958C171.646 223.958 194.979 223.958 209.469 210.917C223.958 197.875 223.958 176.875 223.958 134.896Z" stroke="#040172" stroke-width="10" stroke-linecap="round" stroke-linejoin="round"/>
</svg>
