<svg width="250" height="250" viewBox="0 0 250 250" fill="none" xmlns="http://www.w3.org/2000/svg">
<path d="M41.6667 41.6668V208.333C41.6667 213.859 43.8616 219.158 47.7686 223.065C51.6756 226.972 56.9747 229.167 62.5 229.167H187.5C193.025 229.167 198.324 226.972 202.231 223.065C206.138 219.158 208.333 213.859 208.333 208.333V86.896C208.333 84.1206 207.778 81.3732 206.701 78.8152C205.624 76.2572 204.047 73.9402 202.063 72.0002L155.813 26.771C151.92 22.9653 146.693 20.8342 141.25 20.8335H62.5C56.9747 20.8335 51.6756 23.0284 47.7686 26.9354C43.8616 30.8424 41.6667 36.1415 41.6667 41.6668Z" stroke="#040172" stroke-width="10" stroke-linecap="round" stroke-linejoin="round"/>
<path d="M145.833 20.8335V62.5002C145.833 68.0255 148.028 73.3245 151.935 77.2316C155.842 81.1386 161.141 83.3335 166.667 83.3335H208.333" stroke="#040172" stroke-width="10" stroke-linejoin="round"/>
</svg>
